<svg width="84" height="32" viewBox="0 0 84 32" fill="none" xmlns="http://www.w3.org/2000/svg">
<path d="M16.1214 16.652C15.7287 14.1182 14.1062 12.755 11.5205 12.755C7.53465 12.755 6.22329 16.7928 6.22329 20.1193C6.22329 23.3643 7.49021 27.2613 11.3946 27.2613C14.284 27.2613 15.951 25.4239 16.3436 22.6605H22.3447C21.5593 28.6615 17.3957 31.951 11.4316 31.951C4.6008 31.951 0 27.1353 0 20.3415C0 13.2884 4.20814 8.07271 11.565 8.07271C16.9141 8.07271 21.8186 10.8732 22.2113 16.652H16.1214Z" fill="black"/>
<path d="M77.7766 26.2165L84 25.5793V11.3472L77.7766 13.4216V26.2165Z" fill="#7A417F"/>
<path d="M77.7766 13.4218L84 11.3473V8.68018H77.7766V13.4218Z" fill="black"/>
<path d="M77.7766 31.3358H84V25.5792L77.7766 26.2164V31.3358Z" fill="black"/>
<path d="M83.9926 0.0489998H77.7766V5.17582H83.9926V0.0489998Z" fill="black"/>
<path d="M53.1724 21.623C53.4465 24.2161 54.3208 26.6387 55.8025 28.4835L76.1246 26.3868V13.9698L69.5308 16.1628C69.9457 17.2963 70.1161 18.6077 70.1161 19.9413C70.1161 23.6604 68.8863 27.2536 64.767 27.2536C60.9145 27.2536 59.292 23.5345 59.292 19.9783C59.292 19.8449 59.292 19.7042 59.292 19.5708L53.1724 21.623Z" fill="#732280"/>
<path d="M59.3067 19.5784C59.4104 16.0074 60.8551 12.7549 64.7743 12.7549C67.3451 12.7549 68.8046 14.1774 69.5381 16.1629L76.1319 13.97V0.0489998H69.9085V11.4436H69.8196C68.4194 9.21358 65.7893 8.07263 63.1148 8.07263C56.4543 8.07263 53.0833 13.7255 53.0833 19.8154C53.0833 20.423 53.1204 21.0305 53.1797 21.6306L59.3067 19.5784Z" fill="black"/>
<path d="M55.8024 28.491C57.4842 30.5951 59.9587 31.9509 63.2407 31.9509C66.1375 31.9509 68.6787 30.9063 70.1234 28.4466H70.2049V31.3434H76.1245V26.3944L55.8024 28.491Z" fill="black"/>
<path d="M45.6599 29.5357L51.8906 28.8911V22.0529L45.6599 24.1347V29.5357Z" fill="#5B0B88"/>
<path d="M51.8906 22.0529V0.0489998H45.6599V24.1347L51.8906 22.0529Z" fill="black"/>
<path d="M45.6599 29.5357V31.336H51.8906V28.8912L45.6599 29.5357Z" fill="black"/>
<path d="M36.8583 27.1056C36.2878 27.4612 35.584 27.6761 34.8728 27.765L26.9973 30.3877C27.6196 30.7507 28.3012 31.0471 29.0199 31.2767L41.4665 29.995C43.0668 28.8392 44.141 27.1056 44.2818 24.6237L36.8583 27.1056Z" fill="#2E006E"/>
<path d="M31.0201 21.386C35.4876 22.3492 38.0732 23.0086 38.0732 24.8978C38.0732 25.9869 37.5101 26.7055 36.7322 27.15L44.2817 24.6385C44.2891 24.4533 44.2965 24.2606 44.2965 24.068C44.2965 19.8598 40.7477 18.5485 37.1101 17.7113C33.5613 16.8816 30.057 16.5704 30.057 14.3404C30.057 12.503 32.1166 12.2363 33.5169 12.2363C35.7543 12.2363 37.5916 12.8957 37.762 15.3035H43.6742C43.1926 9.73955 38.6363 8.08 33.6872 8.08C28.8197 8.08 23.8262 9.56915 23.8262 15.3479C23.8337 19.3264 27.4269 20.6007 31.0201 21.386Z" fill="black"/>
<path d="M29.0494 31.2544C30.5608 31.7434 32.2574 31.9434 33.954 31.9434C36.7101 31.9434 39.4735 31.3952 41.4516 29.9727L29.0494 31.2544Z" fill="black"/>
<path d="M27.0417 30.3802L35.0802 27.6982C34.7171 27.7575 34.3541 27.7797 34.0059 27.7797C31.5536 27.7797 29.2717 26.6906 29.2273 23.9716H23.3077C23.4485 27.1203 24.9154 29.1503 27.0417 30.3802Z" fill="black"/>
</svg>
