<svg width="84" height="32" viewBox="0 0 84 32" fill="none" xmlns="http://www.w3.org/2000/svg">
<path d="M16.1214 16.701C15.7287 14.1672 14.1062 12.804 11.5205 12.804C7.53465 12.804 6.22329 16.8418 6.22329 20.1683C6.22329 23.4133 7.49021 27.3103 11.3946 27.3103C14.284 27.3103 15.951 25.4729 16.3436 22.7095H22.3447C21.5593 28.7105 17.3957 32 11.4316 32C4.6008 32 0 27.1843 0 20.3905C0 13.3374 4.20814 8.1217 11.565 8.1217C16.9141 8.1217 21.8186 10.9222 22.2113 16.701H16.1214Z" fill="white"/>
<path d="M77.7766 26.2655L83.9999 25.6284V11.3962L77.7766 13.4707V26.2655Z" fill="#7A417F"/>
<path d="M77.7766 13.4708L83.9999 11.3964V8.72925H77.7766V13.4708Z" fill="white"/>
<path d="M77.7766 31.3849H83.9999V25.6283L77.7766 26.2655V31.3849Z" fill="white"/>
<path d="M83.9925 0.0980225H77.7766V5.22484H83.9925V0.0980225Z" fill="white"/>
<path d="M53.1724 21.6721C53.4465 24.2652 54.3207 26.6878 55.8025 28.5326L76.1246 26.4359V14.0189L69.5308 16.2119C69.9457 17.3454 70.1161 18.6568 70.1161 19.9903C70.1161 23.7095 68.8863 27.3027 64.767 27.3027C60.9145 27.3027 59.292 23.5836 59.292 20.0274C59.292 19.894 59.292 19.7533 59.292 19.6199L53.1724 21.6721Z" fill="#732280"/>
<path d="M59.3066 19.6274C59.4103 16.0564 60.855 12.804 64.7742 12.804C67.345 12.804 68.8046 14.2264 69.538 16.212L76.1318 14.019V0.0980225H69.9085V11.4926H69.8196C68.4193 9.2626 65.7892 8.12165 63.1147 8.12165C56.4542 8.12165 53.0833 13.7745 53.0833 19.8645C53.0833 20.472 53.1203 21.0795 53.1796 21.6796L59.3066 19.6274Z" fill="white"/>
<path d="M55.8022 28.54C57.484 30.6441 59.9585 31.9999 63.2406 31.9999C66.1374 31.9999 68.6786 30.9553 70.1233 28.4956H70.2048V31.3924H76.1243V26.4434L55.8022 28.54Z" fill="white"/>
<path d="M45.6599 29.5847L51.8906 28.9402V22.1019L45.6599 24.1838V29.5847Z" fill="#5B0B88"/>
<path d="M51.8906 22.1019V0.0980225H45.6599V24.1838L51.8906 22.1019Z" fill="white"/>
<path d="M45.6599 29.5847V31.3851H51.8906V28.9402L45.6599 29.5847Z" fill="white"/>
<path d="M36.8583 27.1547C36.2878 27.5103 35.584 27.7251 34.8728 27.814L26.9973 30.4367C27.6196 30.7998 28.3012 31.0961 29.0199 31.3258L41.4665 30.044C43.0668 28.8883 44.141 27.1546 44.2818 24.6727L36.8583 27.1547Z" fill="white"/>
<path d="M31.02 21.4351C35.4875 22.3982 38.0731 23.0576 38.0731 24.9468C38.0731 26.0359 37.5101 26.7545 36.7321 27.1991L44.2816 24.6875C44.289 24.5023 44.2964 24.3096 44.2964 24.117C44.2964 19.9089 40.7477 18.5975 37.11 17.7604C33.5612 16.9306 30.0569 16.6194 30.0569 14.3894C30.0569 12.552 32.1165 12.2853 33.5168 12.2853C35.7542 12.2853 37.5916 12.9447 37.762 15.3525H43.6741C43.1925 9.78858 38.6362 8.12903 33.6872 8.12903C28.8196 8.12903 23.8262 9.61818 23.8262 15.397C23.8336 19.3755 27.4268 20.6497 31.02 21.4351Z" fill="white"/>
<path d="M29.0493 31.3034C30.5607 31.7924 32.2573 31.9924 33.9539 31.9924C36.7099 31.9924 39.4734 31.4442 41.4515 30.0217L29.0493 31.3034Z" fill="white"/>
<path d="M27.0416 30.4292L35.0801 27.7472C34.717 27.8065 34.354 27.8287 34.0058 27.8287C31.5535 27.8287 29.2716 26.7396 29.2272 24.0206H23.3076C23.4484 27.1693 24.9153 29.1993 27.0416 30.4292Z" fill="white"/>
</svg>
